CD_DA
CD_TEXT { LANGUAGE_MAP { 0:EN }
    LANGUAGE 0 {
        TITLE "Graduation"
        PERFORMER "Kanye West"
        DISC_ID "CE0D000E"
}}

//Track 1
TRACK AUDIO
    CD_TEXT { LANGUAGE 0 {
        TITLE "Good Morning"
        PERFORMER "Kanye West"
    }}
    AUDIOFILE "Kanye West - Graduation.wav" 00:00:00 03:15:07

//Track 2
TRACK AUDIO
    CD_TEXT { LANGUAGE 0 {
        TITLE "Champion"
        PERFORMER "Kanye West"
    }}
    AUDIOFILE "Kanye West - Graduation.wav" 03:15:07 02:47:48
    START 00:00:03

//Track 3
TRACK AUDIO
    CD_TEXT { LANGUAGE 0 {
        TITLE "Stronger"
        PERFORMER "Kanye West"
    }}
    AUDIOFILE "Kanye West - Graduation.wav" 06:02:55 05:11:72
    START 00:00:07

//Track 4
TRACK AUDIO
    CD_TEXT { LANGUAGE 0 {
        TITLE "I Wonder"
        PERFORMER "Kanye West"
    }}
    AUDIOFILE "Kanye West - Graduation.wav" 11:14:52 04:03:33

//Track 5
TRACK AUDIO
    CD_TEXT { LANGUAGE 0 {
        TITLE "Good Life (feat. T-Pain)"
        PERFORMER "Kanye West"
    }}
    AUDIOFILE "Kanye West - Graduation.wav" 15:18:10 03:27:00

//Track 6
TRACK AUDIO
    CD_TEXT { LANGUAGE 0 {
        TITLE "Can't Tell Me Nothing"
        PERFORMER "Kanye West"
    }}
    AUDIOFILE "Kanye West - Graduation.wav" 18:45:10 04:31:47
    START 00:00:02

//Track 7
TRACK AUDIO
    CD_TEXT { LANGUAGE 0 {
        TITLE "Barry Bonds (feat. Lil Wayne)"
        PERFORMER "Kanye West"
    }}
    AUDIOFILE "Kanye West - Graduation.wav" 23:16:57 03:24:23

//Track 8
TRACK AUDIO
    CD_TEXT { LANGUAGE 0 {
        TITLE "Drunk and Hot Girls (feat. Mos Def)"
        PERFORMER "Kanye West"
    }}
    AUDIOFILE "Kanye West - Graduation.wav" 26:41:05 05:13:17

//Track 9
TRACK AUDIO
    CD_TEXT { LANGUAGE 0 {
        TITLE "Flashing Lights (feat. Dwele)"
        PERFORMER "Kanye West"
    }}
    AUDIOFILE "Kanye West - Graduation.wav" 31:54:22 03:57:38

//Track 10
TRACK AUDIO
    CD_TEXT { LANGUAGE 0 {
        TITLE "Everything I Am (feat. Scratches by DJ Premiere)"
        PERFORMER "Kanye West"
    }}
    AUDIOFILE "Kanye West - Graduation.wav" 35:51:60 03:47:67

//Track 11
TRACK AUDIO
    CD_TEXT { LANGUAGE 0 {
        TITLE "The Glory"
        PERFORMER "Kanye West"
    }}
    AUDIOFILE "Kanye West - Graduation.wav" 39:39:52 03:32:53

//Track 12
TRACK AUDIO
    CD_TEXT { LANGUAGE 0 {
        TITLE "Homecoming"
        PERFORMER "Kanye West"
    }}
    AUDIOFILE "Kanye West - Graduation.wav" 43:12:30 03:23:37

//Track 13
TRACK AUDIO
    CD_TEXT { LANGUAGE 0 {
        TITLE "Big Brother"
        PERFORMER "Kanye West"
    }}
    AUDIOFILE "Kanye West - Graduation.wav" 46:35:67